# xmcd CD database file
#
# Track frame offsets:
#	150
#	27082
#	55336
#	80451
#	92840
#	116360
#	138400
#	164690
#	188614
#	218949
#	243077
#	273364
#
# Disc length: 3726 seconds
#
# Revision: 0
# Processed by: cddbd v1.5PL3 Copyright (c) Steve Scherf et al.
# Submitted via: CDex 1.51
#
DISCID=9f0e8c0c
DTITLE=La Barriada - La Barriada
DYEAR=1996
DGENRE=Jazz
TTITLE0=La Barriada
TTITLE1=Promesar
TTITLE2=Sonrisa Magica
TTITLE3=Bachata Corazon
TTITLE4=Cada Cual Por Su Lado
TTITLE5=Fantasma
TTITLE6=Tu Recuerdo Y Yo
TTITLE7=Basta Una Mirada
TTITLE8=Por Una Serenata
TTITLE9=Un Pedago De Mi
TTITLE10=Tu Manera De Amar
TTITLE11=La Barriada
EXTD=YEAR: 1996
EXTT0=
EXTT1=
EXTT2=
EXTT3=
EXTT4=
EXTT5=
EXTT6=
EXTT7=
EXTT8=
EXTT9=
EXTT10=
EXTT11=
PLAYORDER=
